<svg width="26" height="26" viewBox="0 0 26 26" fill="none" xmlns="http://www.w3.org/2000/svg">
<path fill-rule="evenodd" clip-rule="evenodd" d="M17.1558 25V15.7708H20.1364L20.5808 12.1737H17.1558V9.87753C17.1558 8.83725 17.433 8.1276 18.8706 8.1276L20.7024 8.12512V4.91036C20.3851 4.86567 19.298 4.76636 18.0322 4.76636C15.391 4.76636 13.5827 6.44429 13.5827 9.5225V12.1737H10.5926V15.7708H13.5827V25H17.1558Z" stroke="white" stroke-width="2"/>
<path fill-rule="evenodd" clip-rule="evenodd" d="M23.3448 25H2.65517C1.7411 25 1 24.2589 1 23.3448V2.65517C1 1.7411 1.7411 1 2.65517 1H23.3448C24.2589 1 25 1.7411 25 2.65517V23.3448C25 24.2589 24.2589 25 23.3448 25Z" stroke="white" stroke-width="2" stroke-linejoin="round"/>
</svg>
