<?xml version="1.0" encoding="UTF-8"?>
<svg xmlns="http://www.w3.org/2000/svg" xmlns:xlink="http://www.w3.org/1999/xlink" width="44pt" height="44pt" viewBox="0 0 44 44" version="1.1">
<g id="surface1">
<path style=" stroke:none;fill-rule:nonzero;fill:#fff;fill-opacity:1;" d="M 29.34375 29.070312 C 34.027344 21.722656 33.4375 22.640625 33.574219 22.449219 C 35.277344 20.046875 36.179688 17.214844 36.179688 14.265625 C 36.179688 6.445312 29.832031 0 22 0 C 14.191406 0 7.820312 6.429688 7.820312 14.265625 C 7.820312 17.214844 8.738281 20.117188 10.5 22.554688 L 14.652344 29.070312 C 10.214844 29.753906 2.664062 31.789062 2.664062 36.265625 C 2.664062 37.898438 3.730469 40.222656 8.804688 42.035156 C 12.347656 43.304688 17.035156 44 22 44 C 31.285156 44 41.335938 41.382812 41.335938 36.265625 C 41.335938 31.785156 33.796875 29.753906 29.34375 29.070312 Z M 12.652344 21.136719 C 12.640625 21.113281 12.625 21.09375 12.609375 21.070312 C 11.144531 19.054688 10.398438 16.667969 10.398438 14.265625 C 10.398438 7.820312 15.589844 2.578125 22 2.578125 C 28.398438 2.578125 33.601562 7.820312 33.601562 14.265625 C 33.601562 16.671875 32.871094 18.976562 31.484375 20.941406 C 31.359375 21.105469 32.007812 20.097656 22 35.800781 Z M 22 41.421875 C 11.859375 41.421875 5.242188 38.441406 5.242188 36.265625 C 5.242188 34.804688 8.640625 32.398438 16.175781 31.460938 L 20.914062 38.890625 C 21.148438 39.261719 21.558594 39.488281 22 39.488281 C 22.441406 39.488281 22.851562 39.261719 23.085938 38.890625 L 27.820312 31.460938 C 35.355469 32.398438 38.757812 34.804688 38.757812 36.265625 C 38.757812 38.421875 32.199219 41.421875 22 41.421875 Z M 22 41.421875 "/>
<path style=" stroke:none;fill-rule:nonzero;fill:#fff;fill-opacity:1;" d="M 22 7.820312 C 18.445312 7.820312 15.554688 10.710938 15.554688 14.265625 C 15.554688 17.820312 18.445312 20.710938 22 20.710938 C 25.554688 20.710938 28.445312 17.820312 28.445312 14.265625 C 28.445312 10.710938 25.554688 7.820312 22 7.820312 Z M 22 18.132812 C 19.867188 18.132812 18.132812 16.398438 18.132812 14.265625 C 18.132812 12.132812 19.867188 10.398438 22 10.398438 C 24.132812 10.398438 25.867188 12.132812 25.867188 14.265625 C 25.867188 16.398438 24.132812 18.132812 22 18.132812 Z M 22 18.132812 "/>
</g>
</svg>
