<?xml version="1.0" encoding="UTF-8"?>
<svg xmlns="http://www.w3.org/2000/svg" xmlns:xlink="http://www.w3.org/1999/xlink" width="50pt" height="50pt" viewBox="0 0 50 50" version="1.1">
<g id="surface1">
<path style=" stroke:none;fill-rule:nonzero;fill:#fff;fill-opacity:1;" d="M 45.605469 7.871094 L 4.394531 7.871094 C 1.972656 7.871094 0 9.84375 0 12.265625 L 0 37.734375 C 0 40.15625 1.972656 42.128906 4.394531 42.128906 L 45.605469 42.128906 C 48.027344 42.128906 50 40.15625 50 37.734375 L 50 12.265625 C 50 9.84375 48.027344 7.871094 45.605469 7.871094 Z M 45.03125 10.800781 L 44.445312 11.289062 L 26.742188 26.03125 C 25.734375 26.871094 24.265625 26.871094 23.257812 26.03125 L 5.554688 11.289062 L 4.96875 10.800781 Z M 2.929688 12.917969 L 17.351562 24.925781 L 2.929688 34.527344 Z M 45.605469 39.199219 L 4.394531 39.199219 C 3.6875 39.199219 3.09375 38.695312 2.960938 38.023438 L 19.703125 26.882812 L 21.382812 28.28125 C 22.429688 29.15625 23.714844 29.589844 25 29.589844 C 26.285156 29.589844 27.570312 29.15625 28.617188 28.28125 L 30.296875 26.882812 L 47.039062 38.023438 C 46.90625 38.695312 46.3125 39.199219 45.605469 39.199219 Z M 47.070312 34.527344 L 32.648438 24.925781 L 47.070312 12.917969 Z M 47.070312 34.527344 "/>
</g>
</svg>
