<svg width="23" height="39" viewBox="0 0 23 39" fill="none" xmlns="http://www.w3.org/2000/svg">
<path d="M1.22027 4.65152L16.0422 19.4999L1.22027 34.3484C0.725542 34.8461 0.447853 35.5193 0.447853 36.221C0.447853 36.9228 0.725542 37.596 1.22027 38.0937C1.71795 38.5884 2.39119 38.8661 3.09293 38.8661C3.79467 38.8661 4.46791 38.5884 4.96559 38.0937L21.8593 21.1999C22.3071 20.7474 22.5582 20.1365 22.5582 19.4999C22.5582 18.8634 22.3071 18.2525 21.8593 17.7999L4.96559 0.906206C4.46791 0.411477 3.79467 0.133789 3.09293 0.133789C2.39119 0.133789 1.71795 0.411477 1.22027 0.906206C0.725542 1.40389 0.447853 2.07712 0.447853 2.77886C0.447853 3.4806 0.725542 4.15383 1.22027 4.65152Z" fill="white"/>
</svg>
