<svg width="85" height="85" viewBox="0 0 85 85" fill="none" xmlns="http://www.w3.org/2000/svg">
<path d="M2.65624 42.5C2.65624 50.3803 4.99304 58.0837 9.37112 64.636C13.7492 71.1883 19.972 76.2951 27.2524 79.3108C34.5329 82.3265 42.5442 83.1155 50.2731 81.5782C58.002 80.0408 65.1015 76.246 70.6738 70.6738C76.246 65.1015 80.0408 58.0021 81.5781 50.2731C83.1155 42.5442 82.3265 34.5329 79.3108 27.2525C76.2951 19.972 71.1883 13.7492 64.636 9.37113C58.0837 4.99304 50.3803 2.65625 42.5 2.65625C31.9328 2.65625 21.7984 6.85406 14.3262 14.3262C6.85406 21.7984 2.65624 31.9328 2.65624 42.5ZM77.0312 42.5C77.0312 49.3296 75.006 56.0059 71.2117 61.6845C67.4173 67.3632 62.0243 71.7891 55.7145 74.4027C49.4048 77.0163 42.4617 77.7001 35.7633 76.3677C29.0649 75.0353 22.912 71.7466 18.0827 66.9173C13.2534 62.088 9.96465 55.9351 8.63226 49.2367C7.29986 42.5383 7.98369 35.5952 10.5973 29.2855C13.2109 22.9757 17.6368 17.5827 23.3155 13.7883C28.9941 9.99397 35.6704 7.96875 42.5 7.96875C51.6582 7.96875 60.4414 11.6069 66.9173 18.0827C73.3931 24.5586 77.0312 33.3417 77.0312 42.5Z" fill="white"/>
<path d="M35.2203 27.6515L50.0422 42.4999L35.2203 57.3484C34.7255 57.8461 34.4479 58.5193 34.4479 59.221C34.4479 59.9228 34.7255 60.596 35.2203 61.0937C35.718 61.5884 36.3912 61.8661 37.0929 61.8661C37.7947 61.8661 38.4679 61.5884 38.9656 61.0937L55.8593 44.1999C56.3071 43.7474 56.5582 43.1365 56.5582 42.4999C56.5582 41.8634 56.3071 41.2525 55.8593 40.7999L38.9656 23.9062C38.4679 23.4115 37.7947 23.1338 37.0929 23.1338C36.3912 23.1338 35.718 23.4115 35.2203 23.9062C34.7255 24.4039 34.4479 25.0771 34.4479 25.7789C34.4479 26.4806 34.7255 27.1538 35.2203 27.6515Z" fill="white"/>
</svg>
