<svg width="23" height="39" viewBox="0 0 23 39" fill="none" xmlns="http://www.w3.org/2000/svg">
<path d="M21.7797 4.65152L6.95781 19.4999L21.7797 34.3484C22.2744 34.8461 22.5521 35.5193 22.5521 36.221C22.5521 36.9228 22.2744 37.596 21.7797 38.0937C21.282 38.5884 20.6088 38.8661 19.907 38.8661C19.2053 38.8661 18.5321 38.5884 18.0344 38.0937L1.14062 21.1999C0.692916 20.7474 0.441801 20.1365 0.441801 19.4999C0.441801 18.8634 0.692916 18.2525 1.14062 17.7999L18.0344 0.906206C18.5321 0.411477 19.2053 0.133789 19.907 0.133789C20.6088 0.133789 21.282 0.411477 21.7797 0.906206C22.2744 1.40389 22.5521 2.07712 22.5521 2.77886C22.5521 3.4806 22.2744 4.15383 21.7797 4.65152Z" fill="#000"/>
</svg>
