<svg width="85" height="85" viewBox="0 0 85 85" fill="none" xmlns="http://www.w3.org/2000/svg">
<path d="M82.3437 42.5C82.3437 50.3803 80.0069 58.0837 75.6289 64.636C71.2508 71.1883 65.028 76.2951 57.7475 79.3108C50.467 82.3265 42.4558 83.1155 34.7269 81.5782C26.9979 80.0408 19.8985 76.246 14.3262 70.6738C8.75396 65.1015 4.95921 58.0021 3.42184 50.2731C1.88446 42.5442 2.67349 34.5329 5.68917 27.2525C8.70485 19.972 13.8117 13.7492 20.364 9.37113C26.9163 4.99304 34.6196 2.65625 42.5 2.65625C53.0672 2.65625 63.2016 6.85406 70.6738 14.3262C78.1459 21.7984 82.3437 31.9328 82.3437 42.5ZM7.96875 42.5C7.96875 49.3296 9.99397 56.0059 13.7883 61.6845C17.5827 67.3632 22.9757 71.7891 29.2855 74.4027C35.5952 77.0163 42.5383 77.7001 49.2367 76.3677C55.9351 75.0353 62.088 71.7466 66.9173 66.9173C71.7466 62.088 75.0353 55.9351 76.3677 49.2367C77.7001 42.5383 77.0163 35.5952 74.4027 29.2855C71.7891 22.9757 67.3632 17.5827 61.6845 13.7883C56.0059 9.99397 49.3296 7.96875 42.5 7.96875C33.3417 7.96875 24.5586 11.6069 18.0827 18.0827C11.6069 24.5586 7.96875 33.3417 7.96875 42.5Z" fill="white"/>
<path d="M52.7797 27.6515L37.9578 42.4999L52.7797 57.3484C53.2744 57.8461 53.5521 58.5193 53.5521 59.221C53.5521 59.9228 53.2744 60.596 52.7797 61.0937C52.282 61.5884 51.6088 61.8661 50.907 61.8661C50.2053 61.8661 49.5321 61.5884 49.0344 61.0937L32.1406 44.1999C31.6929 43.7474 31.4418 43.1365 31.4418 42.4999C31.4418 41.8634 31.6929 41.2525 32.1406 40.7999L49.0344 23.9062C49.5321 23.4115 50.2053 23.1338 50.907 23.1338C51.6088 23.1338 52.282 23.4115 52.7797 23.9062C53.2744 24.4039 53.5521 25.0771 53.5521 25.7789C53.5521 26.4806 53.2744 27.1538 52.7797 27.6515Z" fill="white"/>
</svg>
