<svg width="31" height="31" viewBox="0 0 31 31" fill="none" xmlns="http://www.w3.org/2000/svg">
<path d="M16.8125 1.7916L20.1667 9.08327C20.3125 9.52077 20.75 9.81244 21.1875 9.95827L28.7708 11.1249C30.0833 11.1249 30.5208 12.5833 29.6458 13.4583L24.1042 19.1458C23.8125 19.4374 23.6667 20.0208 23.6667 20.4583L24.9792 28.3333C25.125 29.4999 23.9583 30.5208 22.9375 29.9374L16.0833 26.1458C15.6458 25.8541 15.2083 25.8541 14.7708 26.1458L7.91668 29.9374C6.89585 30.5208 5.58335 29.6458 5.87502 28.3333L7.18752 20.4583C7.33335 20.0208 7.04168 19.4374 6.75002 19.1458L1.20835 13.4583C0.479183 12.5833 0.916682 11.1249 2.08335 10.9791L9.66668 9.81244C10.1042 9.81244 10.5417 9.37494 10.6875 8.93744L14.0417 1.64577C14.7708 0.624936 16.2292 0.624935 16.8125 1.7916Z" fill="#A5A5A5"/>
</svg>
